<?xml version="1.0" encoding="UTF-8" standalone="no"?>
<!-- Created with Inkscape (http://www.inkscape.org/) -->

<svg
   version="1.1"
   id="svg1"
   width="81.919998"
   height="81.919998"
   viewBox="0 0 81.919998 81.919998"
   xmlns="http://www.w3.org/2000/svg"
   xmlns:svg="http://www.w3.org/2000/svg">
  <defs
     id="defs1" />
  <g
     id="g1">
    <path
       style="fill:#000000"
       d="M 29.94788,78.76511 29.77799,78.490222 27.643721,78.27156 25.509453,78.052898 22.594726,77.073533 19.68,76.094169 17.6,74.959449 15.52,73.824729 13.44,72.066183 11.36,70.307636 10.232715,68.993817 9.1054301,67.679998 8.292787,66.559999 l -0.8126431,-1.12 -1.0714768,-2.24 -1.0714769,-2.24 -0.4238789,-2.08 -0.4238789,-2.08 -0.2992966,-1.6 -0.2992967,-1.6 -0.1964413,-1.68 -0.1964413,-1.68 H 14.346101 25.194245 l 0.704445,2 0.704444,2 0.112645,0.35897 0.112645,0.358971 1.512258,0.732071 1.512258,0.732072 2.27353,0.116 2.273529,0.116 1.432353,-0.727042 1.432352,-0.727042 0.647648,-1.12 0.647647,-1.12 -0.02027,-2.24 -0.02027,-2.24 -0.506966,-0.960755 -0.506966,-0.960756 -0.592761,-0.513931 -0.592762,-0.513931 -1.087751,-0.365314 -1.087752,-0.365313 H 24.131133 14.117771 L 13.901198,44.449577 13.684626,44.099156 14.362313,43.182535 15.04,42.265914 v -0.200645 -0.200644 l 0.912524,-1.332313 0.912525,-1.332313 0.607475,-0.915627 0.607476,-0.915627 0.96,-1.528746 0.96,-1.528745 0.611247,-0.915628 0.611247,-0.915627 0.693312,-1.12 0.693313,-1.12 0.902978,-1.365796 0.902977,-1.365796 -0.138981,-0.13898 -0.13898,-0.138981 -8.388556,-0.225117 -8.3885572,-0.225117 V 16.640001 6.499789 l 25.1999992,-0.1861804 25.2,-0.1861804 0.277771,0.2700567 0.27777,0.2700567 -1.87777,2.7686622 -1.877771,2.7686622 -1.010134,1.656449 -1.010134,1.656449 0.14902,0.241118 L 52.83777,16 h 1.901114 1.901115 v 0.181037 0.181037 l -0.363861,0.698963 -0.363861,0.698963 -1.66657,2.56 -1.666569,2.559999 -2.28904,3.52 -2.289039,3.52 -5.3e-4,0.373362 -5.3e-4,0.373362 2.493676,1.747365 2.493677,1.747365 2.101998,2.270352 2.101998,2.270352 1.137874,2.168921 1.137874,2.168921 0.737509,2.72 0.737509,2.72 -0.0036,2.72 -0.0036,2.72 -0.815287,3.52 -0.815287,3.52 -1.214388,2.4 -1.214389,2.4 -0.951123,1.386055 -0.951123,1.386055 -1.646701,1.772561 -1.6467,1.772562 -1.92,1.337202 -1.92,1.337203 -1.6,0.818421 -1.6,0.818421 -2.72,0.830834 -2.72,0.830835 -2.777471,0.494925 -2.777471,0.494925 h -1.76356 -1.763644 z m 9.188949,-3.761262 2.30317,-0.51615 2.279005,-1.044087 2.279005,-1.044088 1.905078,-1.293713 1.905078,-1.293714 1.613261,-1.765164 1.61326,-1.765164 1.454556,-2.500885 1.454555,-2.500884 0.676632,-2.221328 0.676632,-2.221328 0.376404,-2.980181 L 58.04987,50.876981 57.670847,48.23849 57.291825,45.599999 56.014093,43.007791 54.736362,40.415582 52.633906,38.144736 50.53145,35.873889 48.63368,34.606607 46.735911,33.339325 45.127955,32.61262 43.519999,31.885915 v -0.269087 -0.269086 l 4,-6.080343 4,-6.080343 V 19.033528 18.88 h -2.274237 -2.274236 l 0.178298,-0.464638 0.178298,-0.464637 2.895939,-4.326911 2.895938,-4.3269116 V 9.1284511 8.9599998 h -21.6 H 9.9199998 V 16.64 24.319999 H 19.68 29.439999 v 0.295727 0.295726 l -4.045075,6.344274 -4.045076,6.344273 -1.234924,1.822442 -1.234924,1.822442 4.05e-4,0.257558 4.05e-4,0.257558 h 7.759595 7.759594 l 1.731117,0.602696 1.731116,0.602695 1.338904,1.338904 1.338903,1.338903 0.52998,1.555405 0.52998,1.555406 v 2.280165 2.280165 l -0.828874,1.663334 -0.828874,1.663333 -1.171126,0.97049 -1.171126,0.970489 -1.732808,0.507066 -1.732807,0.507065 -2.427192,-0.147036 -2.427193,-0.147037 -1.69392,-0.736416 -1.693921,-0.736416 -1.117907,-1.306024 -1.117908,-1.306023 -0.192296,-0.808582 -0.192296,-0.808582 -0.315058,-0.4 -0.315058,-0.4 H 14.840817 7.0399998 v 1.526432 1.526431 l 0.6480953,2.33873 0.6480952,2.33873 0.917201,1.816965 0.9172007,1.816966 1.445944,1.92353 1.445945,1.923531 1.554696,1.310939 1.554696,1.310939 1.851182,1.184187 1.851182,1.184187 2.142881,0.811313 2.142881,0.811313 1.92,0.422463 1.92,0.422463 4.416831,0.02544 4.41683,0.02544 z M 28.735493,73.276342 26.910987,72.986885 25.055493,72.451977 23.199999,71.917069 21.119846,70.874721 19.039692,69.832372 17.05533,68.340701 15.070969,66.849029 13.585385,64.872766 12.099801,62.896503 11.435958,61.608251 10.772115,60.319999 10.056294,58.080516 9.3404744,55.841034 9.4891225,55.600516 9.6377707,55.359999 h 5.8861013 5.8861 l 0.529419,1.115667 0.529419,1.115667 1.005595,1.00498 1.005594,1.00498 2.069072,0.981837 2.069072,0.981838 3.530928,0.01752 3.530928,0.01752 1.654567,-0.57727 1.654566,-0.57727 1.447659,-1.27428 1.447658,-1.27428 0.893195,-1.82845 0.893194,-1.82845 9.75e-4,-3.52 9.74e-4,-3.52 -0.936813,-1.857349 -0.936814,-1.85735 -1.260411,-1.138705 -1.260411,-1.138706 -1.479169,-0.683945 -1.47917,-0.683945 -6.4,-0.101987 -6.4,-0.101988 -0.262592,-0.256605 -0.262592,-0.256605 0.958281,-1.401407 0.958281,-1.401408 4.504311,-6.99318 4.504311,-6.99318 v -0.122563 -0.122563 l -10.8,-0.08426 L 12.32,21.92 12.22814,17.28 12.13628,12.64 12.314238,11.92 12.492196,11.2 h 18.073903 18.073903 v 0.295693 0.295693 l -2.96,4.424307 -2.96,4.424307 -0.106667,0.24 -0.106666,0.24 h 2.266666 2.266667 v 0.370775 0.370775 l -3.52,5.381038 -3.52,5.381039 v 0.315852 0.315852 l 1.36,0.36234 1.36,0.36234 2.56,1.323921 2.56,1.323921 2.439656,2.406073 2.439657,2.406073 1.003834,1.997791 1.003835,1.99779 0.476509,1.829441 0.476509,1.829441 v 1.984619 1.984618 l -0.459345,2.40078 -0.459345,2.40078 -0.982071,2.34737 -0.98207,2.34737 -1.651908,2.197172 -1.651909,2.197173 -1.786676,1.42302 -1.786676,1.423019 -2.13728,1.092389 -2.137281,1.09239 -2.342719,0.652388 -2.34272,0.652388 -3.2,0.137931 -3.2,0.137931 z M 59.519999,12.011259 V 2.5825175 l 0.56,-0.2921855 0.56,-0.2921855 2.822373,-0.4139266 2.822374,-0.4139265 6.802102,6.7965828 6.802102,6.7965828 -0.587722,3.054079 -0.587722,3.05408 -0.175639,0.284191 L 78.362227,21.44 H 68.941113 59.519999 Z M 74.879998,18.4 73.141861,16.64 H 72.922496 72.70313 l -4.431566,1.744927 -4.431565,1.744927 6.389068,0.01507 6.389069,0.01507 z m -7.919999,-0.785326 5.039999,-1.979738 V 15.411751 15.188565 L 68.702234,11.902023 65.40447,8.6154823 63.862243,12.707741 62.320017,16.8 l -0.610407,1.558226 -0.610407,1.558227 0.410398,-0.16102 0.410398,-0.161021 z M 78.197794,18.007092 78.399656,16.8 l 0.184997,-0.672214 0.184996,-0.672213 -2.024825,0.303898 -2.024826,0.303898 -0.140707,0.135689 -0.140707,0.13569 1.55452,1.578253 1.554521,1.578252 0.224154,-0.138534 0.224154,-0.138535 z M 62.873152,12.524683 64.639999,8.328074 V 8.0747926 7.8215113 l -2.08,-2.0615114 -2.08,-2.0615115 0.0097,7.0307556 0.0097,7.030756 0.303423,-0.519354 0.303423,-0.519353 z M 77.676964,14.429959 78.07393,14.217954 75.637291,11.828977 73.200653,9.4399998 73.400326,10.52 73.599998,11.6 v 1.743026 1.743026 l 1.84,-0.222044 1.84,-0.222044 z M 72.43833,11.407792 72.225581,8.6399998 h -0.86585 -0.86585 L 68.44694,8.44199 66.399999,8.2439802 l 3.023527,3.0678148 3.023528,3.067816 0.102013,-0.102013 0.102013,-0.102013 z M 71.359998,7.431991 V 7.1839822 L 68.998692,4.8384348 66.637385,2.4928874 66.278692,4.5526558 65.919999,6.6124242 v 0.359167 0.3591671 l 2.159999,0.1119454 2.16,0.1119455 0.56,0.062675 0.56,0.062675 z M 65.56928,2.9253094 65.6,2.1706188 64.88,2.3423452 64.16,2.5140715 62.610369,2.7378132 61.060738,2.9615548 62.930369,4.8556425 64.8,6.7497302 65.169281,5.2148651 65.538562,3.6799999 Z"
       id="path1" />
  </g>
</svg>
